<?xml version="1.0" encoding="UTF-8"?>
<svg id="Layer_1" xmlns="http://www.w3.org/2000/svg" version="1.1" viewBox="0 0 405.74 356.78">
  <!-- Generator: Adobe Illustrator 29.8.7, SVG Export Plug-In . SVG Version: 2.1.1 Build 1)  -->
  <defs>
    <style>
      .st0 {
        fill: #7a98b7;
      }
    </style>
  </defs>
  <path class="st0" d="M214.12,145.1c.36.42,11.43.54,11.43,0V52.53c0-1.06,9.39-16.39,11.58-18,15.24-11.16,41.77,1.33,41.77,18v143.4c14.08-7.63,22.4-46.94,35.17-52,20.07-7.96,40.58-1.35,40.57,21.15,0,14.14-40.95,73.99-49.77,93.72-15.37,34.39-14.3,67.63-55.04,85.52-27.33,12-93.86,11.29-122.2,1.16-50.3-17.99-45.25-44.6-65.25-83.06-13.88-26.69-31.61-52.16-48.52-77.18-9.15-23.1,11.78-41.07,35.48-30.17,13.06,6,25.76,35.63,35.16,46.35,4,4.56,4.72,6.97,9.51,1.76,10.74-11.68,2.01-21.83,1.76-34.3-.64-32.44-3.72-81.86.52-112.39,1.84-13.22,9.99-25.17,25-26.62,42.78-4.15,23.69,83.31,28.02,106.18,1.12,5.94,4.1,10.23,11.44,9.07V19.85c0-1.71,10.39-14.88,13.08-16.56,13.08-8.18,40.27-.06,40.27,12.93,0,17.05-4.24,123.86,0,128.88h.02ZM236.06,204.1c-5.1-4.61-20.6-5.69-27.57-4.54-9.47,1.56-16.99,14.48-19.14,14.47-2.54,0-20.25-25.81-45.33-10.45-29.5,18.08,6.7,60.21,22.4,75.92,7.87,7.88,19.83,24.41,30.81,14.69,12.21-19.99,50.37-45.52,47.4-70.72-.41-3.47-6.29-17.33-8.56-19.38h0Z"/>
</svg>