<?xml version="1.0" encoding="utf-8"?>
<!-- Generator: Adobe Illustrator 28.6.0, SVG Export Plug-In . SVG Version: 9.03 Build 54939)  -->
<svg version="1.0" id="Layer_1" xmlns="http://www.w3.org/2000/svg" xmlns:xlink="http://www.w3.org/1999/xlink" x="0px" y="0px"
	 viewBox="0 0 64 64" style="enable-background:new 0 0 64 64;" xml:space="preserve">
<style type="text/css">
	.st0{fill:none;stroke:#231F20;stroke-width:2;stroke-linecap:round;stroke-linejoin:round;stroke-miterlimit:10;}
</style>
<g>
	<path class="st0" d="M21.6,11.9c3-2,6.6-3.2,10.4-3.2h0c10.3,0,18.7,8.4,18.7,18.7v9.4c0,10.3-8.4,18.7-18.7,18.7h0
		c-10.3,0-18.7-8.4-18.7-18.7v-9.4c0-3.5,1-6.7,2.6-9.5"/>
	<path class="st0" d="M45.3,28.7v6.7c0,7.3-5.9,13.3-13.3,13.3h0c-7.3,0-13.3-5.9-13.3-13.3v-6.7c0-7.3,5.9-13.3,13.3-13.3h0
		c4.9,0,9.2,2.7,11.5,6.7"/>
	<path class="st0" d="M26.8,39.9c-1.7-1.5-2.7-3.6-2.7-6v-4c0-4.4,3.5-7.9,7.9-7.9h0c4.4,0,7.9,3.5,7.9,7.9v4c0,4.4-3.5,7.9-7.9,7.9
		h0"/>
	<path class="st0" d="M32,36.5L32,36.5c-1.7,0-3-1.3-3-3v-3.1c0-1.7,1.3-3,3-3h0c1.7,0,3,1.3,3,3v3.1C35,35.2,33.7,36.5,32,36.5z"/>
	<path class="st0" d="M3.5,22.8V10C3.5,6.1,6.6,3,10.4,3h12.8"/>
	<path class="st0" d="M60.5,22.8V10c0-3.8-3.1-6.9-6.9-6.9H40.8"/>
	<path class="st0" d="M60.5,41.2V54c0,3.8-3.1,6.9-6.9,6.9H40.8"/>
	<path class="st0" d="M3.5,41.2V54c0,3.8,3.1,6.9,6.9,6.9h12.8"/>
</g>
</svg>
