<?xml version="1.0" encoding="utf-8"?>
<!-- Generator: Adobe Illustrator 25.4.1, SVG Export Plug-In . SVG Version: 6.00 Build 0)  -->
<svg version="1.0" id="Layer_1" xmlns="http://www.w3.org/2000/svg" xmlns:xlink="http://www.w3.org/1999/xlink" x="0px" y="0px"
	 viewBox="0 0 64 64" style="enable-background:new 0 0 64 64;" xml:space="preserve">
<style type="text/css">
	.st0{fill:none;stroke:#231F20;stroke-width:2;stroke-linecap:round;stroke-linejoin:round;stroke-miterlimit:10;}
</style>
<g>
	<path class="st0" d="M32.38,9.05c0,0,6.98-10.85,14.98-0.85c8.06,10.08-14.98,24.77-14.98,24.77S9.44,18.35,17.41,8.2
		C24.6-0.96,32.38,9.05,32.38,9.05z"/>
	<g>
		<path class="st0" d="M35.75,60.03V46.05c0-1.44,0.56-2.83,1.55-3.87l7.23-6.33c0.95-0.79,2.32-0.79,3.27,0l2.38,2"/>
		<path class="st0" d="M45.12,42.85l4.82-4.74c1.26-1.5,1.73-3.14,2.13-5.32l1.38-12.59c0.07-1.15,1.03-2.05,2.18-2.05h0.14
			c1.12,0,2.06,0.85,2.17,1.97l0.93,19.02c0.24,2.35-0.5,4.69-2.03,6.48l-7.77,7.01v7.4"/>
	</g>
	<g>
		<path class="st0" d="M28.25,60.03V46.05c0-1.44-0.56-2.83-1.55-3.87l-7.23-6.33c-0.95-0.79-2.32-0.79-3.27,0l-2.38,2"/>
		<path class="st0" d="M18.88,42.85l-4.82-4.74c-1.26-1.5-1.73-3.14-2.13-5.32l-1.38-12.59c-0.07-1.15-1.03-2.05-2.18-2.05H8.22
			c-1.12,0-2.06,0.85-2.17,1.97L5.12,39.15c-0.24,2.35,0.5,4.69,2.03,6.48l7.77,7.01v7.4"/>
	</g>
</g>
</svg>
